<svg xmlns="http://www.w3.org/2000/svg" width="194.17000000000002" height="35" viewBox="0 0 194.17000000000002 35"><rect class="svg__rect" x="0" y="0" width="97.39" height="35" fill="#519BB3"/><rect class="svg__rect" x="95.39" y="0" width="98.78000000000002" height="35" fill="#D7DEE2"/><path class="svg__text" d="M15.70 22L14.22 22L14.22 13.47L17.48 13.47Q18.91 13.47 19.75 14.21Q20.59 14.96 20.59 16.18L20.59 16.18Q20.59 17.44 19.77 18.13Q18.95 18.83 17.46 18.83L17.46 18.83L15.70 18.83L15.70 22ZM15.70 14.66L15.70 17.64L17.48 17.64Q18.27 17.64 18.69 17.27Q19.10 16.90 19.10 16.19L19.10 16.19Q19.10 15.50 18.68 15.09Q18.26 14.68 17.52 14.66L17.52 14.66L15.70 14.66ZM30.45 22L24.88 22L24.88 13.47L30.41 13.47L30.41 14.66L26.36 14.66L26.36 17.02L29.86 17.02L29.86 18.19L26.36 18.19L26.36 20.82L30.45 20.82L30.45 22ZM36.33 14.66L33.69 14.66L33.69 13.47L40.46 13.47L40.46 14.66L37.80 14.66L37.80 22L36.33 22L36.33 14.66ZM43.78 19.42L43.78 19.42L45.27 19.42Q45.27 20.15 45.75 20.55Q46.23 20.95 47.12 20.95L47.12 20.95Q47.90 20.95 48.29 20.63Q48.68 20.32 48.68 19.80L48.68 19.80Q48.68 19.24 48.28 18.94Q47.89 18.63 46.85 18.32Q45.82 18.01 45.21 17.63L45.21 17.63Q44.05 16.90 44.05 15.72L44.05 15.72Q44.05 14.69 44.89 14.02Q45.73 13.35 47.07 13.35L47.07 13.35Q47.96 13.35 48.66 13.68Q49.36 14.01 49.75 14.61Q50.15 15.22 50.15 15.96L50.15 15.96L48.68 15.96Q48.68 15.29 48.26 14.91Q47.84 14.54 47.06 14.54L47.06 14.54Q46.33 14.54 45.93 14.85Q45.53 15.16 45.53 15.71L45.53 15.71Q45.53 16.18 45.96 16.50Q46.40 16.81 47.39 17.10Q48.39 17.40 48.99 17.78Q49.60 18.16 49.88 18.65Q50.16 19.13 50.16 19.79L50.16 19.79Q50.16 20.86 49.34 21.49Q48.52 22.12 47.12 22.12L47.12 22.12Q46.20 22.12 45.42 21.77Q44.64 21.43 44.21 20.83Q43.78 20.22 43.78 19.42ZM55.93 22L54.45 22L54.45 13.47L55.93 13.47L55.93 17.02L59.74 17.02L59.74 13.47L61.22 13.47L61.22 22L59.74 22L59.74 18.21L55.93 18.21L55.93 22ZM65.69 18.00L65.69 18.00L65.69 17.52Q65.69 16.28 66.13 15.32Q66.58 14.37 67.38 13.86Q68.19 13.35 69.23 13.35Q70.27 13.35 71.08 13.85Q71.89 14.35 72.32 15.29Q72.76 16.23 72.77 17.48L72.77 17.48L72.77 17.96Q72.77 19.21 72.34 20.16Q71.90 21.10 71.10 21.61Q70.29 22.12 69.24 22.12L69.24 22.12Q68.21 22.12 67.39 21.61Q66.58 21.10 66.14 20.17Q65.70 19.23 65.69 18.00ZM67.17 17.46L67.17 17.96Q67.17 19.36 67.72 20.13Q68.27 20.90 69.24 20.90L69.24 20.90Q70.23 20.90 70.76 20.15Q71.29 19.40 71.29 17.96L71.29 17.96L71.29 17.51Q71.29 16.09 70.75 15.34Q70.22 14.58 69.23 14.58L69.23 14.58Q68.27 14.58 67.73 15.33Q67.19 16.09 67.17 17.46L67.17 17.46ZM78.72 22L77.23 22L77.23 13.47L80.50 13.47Q81.93 13.47 82.77 14.21Q83.61 14.96 83.61 16.18L83.61 16.18Q83.61 17.44 82.79 18.13Q81.96 18.83 80.48 18.83L80.48 18.83L78.72 18.83L78.72 22ZM78.72 14.66L78.72 17.64L80.50 17.64Q81.29 17.64 81.71 17.27Q82.12 16.90 82.12 16.19L82.12 16.19Q82.12 15.50 81.70 15.09Q81.28 14.68 80.54 14.66L80.54 14.66L78.72 14.66Z" fill="#FFFFFF"/><path class="svg__text" d="M111.78 22L109.58 22L109.58 13.60L111.53 13.60L114.49 18.45L117.37 13.60L119.32 13.60L119.35 22L117.17 22L117.14 17.55L114.98 21.17L113.93 21.17L111.78 17.67L111.78 22ZM125.93 22L123.50 22L127.21 13.60L129.55 13.60L133.27 22L130.80 22L130.14 20.37L126.59 20.37L125.93 22ZM128.36 15.93L127.28 18.61L129.44 18.61L128.36 15.93ZM141.39 22L137.42 22L137.42 13.60L141.39 13.60Q142.78 13.60 143.84 14.12Q144.91 14.63 145.50 15.58Q146.09 16.53 146.09 17.80L146.09 17.80Q146.09 19.07 145.50 20.02Q144.91 20.97 143.84 21.48Q142.78 22 141.39 22L141.39 22ZM139.80 15.50L139.80 20.10L141.30 20.10Q142.38 20.10 143.03 19.49Q143.69 18.88 143.69 17.80L143.69 17.80Q143.69 16.72 143.03 16.11Q142.38 15.50 141.30 15.50L141.30 15.50L139.80 15.50ZM152.23 22L149.81 22L153.52 13.60L155.86 13.60L159.58 22L157.11 22L156.45 20.37L152.90 20.37L152.23 22ZM154.67 15.93L153.59 18.61L155.75 18.61L154.67 15.93ZM170.12 22L163.73 22L163.73 13.60L166.11 13.60L166.11 20.11L170.12 20.11L170.12 22ZM174.46 18.26L174.46 18.26L174.46 13.60L176.84 13.60L176.84 18.19Q176.84 20.20 178.44 20.20L178.44 20.20Q180.02 20.20 180.02 18.19L180.02 18.19L180.02 13.60L182.36 13.60L182.36 18.26Q182.36 20.13 181.32 21.15Q180.28 22.17 178.41 22.17L178.41 22.17Q176.54 22.17 175.50 21.15Q174.46 20.13 174.46 18.26Z" fill="#5593C7" x="108.39"/></svg>